<?xml version="1.0" encoding="utf-8"?>
<!-- Generator: Adobe Illustrator 22.0.0, SVG Export Plug-In . SVG Version: 6.00 Build 0)  -->
<svg version="1.1" id="bold" xmlns="http://www.w3.org/2000/svg" xmlns:xlink="http://www.w3.org/1999/xlink" x="0px" y="0px"
	 viewBox="0 0 512 512" style="enable-background:new 0 0 512 512;" xml:space="preserve">
<style type="text/css">
	.st0{fill:#343A40;}
	.st1{fill:#FFFFFF;}
</style>
<path class="st0" d="M82.2,0h347.5C475,0,512,37,512,82.2v347.5c0,45.2-37,82.2-82.2,82.2H82.2C37,512,0,475,0,429.8V82.2
	C0,37,37,0,82.2,0z"/>
<g>
	<path class="st1" d="M211.5,396.3c0,3.9-1,7.6-2.9,10.9c2.2,0.6,4.8,0.8,7.6,0.8c9.5,0,16.2-4.2,20-12.6s5.7-23.4,5.7-45V225.3
		c0-16-2.5-23.9-7.6-23.9c-1.7,0-4.4,0.5-8.2,1.5s-6.4,1.5-7.8,1.5c-12,0-18.1-7.8-18.1-23.5c0-18.8,8.3-28.2,24.8-28.2
		c4.2,0,10.3,0.6,18.3,1.7c8,1.1,14.1,1.7,18.3,1.7s10.5-0.6,18.9-1.7c8.4-1.1,13-1.7,13.9-1.7c7.8,0,11.8,5.5,11.8,16.4v192.4
		c0,15.7-1.4,27.9-4.2,36.8c-2.8,8.8-8.1,17.4-16,25.8c-17.1,18.5-40.6,27.7-70.6,27.7c-20.7,0-37.7-4.3-50.8-12.8
		c-13.2-8.5-19.7-19.7-19.7-33.4c0-9.8,3.5-18.1,10.5-24.8c7-6.7,15.7-10.1,26-10.1c8.7,0,15.9,2.5,21.6,7.4
		C208.6,382.9,211.5,389,211.5,396.3z M269.1,136.6c-10.6,0-19.7-3.7-27.3-11.1s-11.3-16.5-11.3-27.1s3.8-19.7,11.3-27.1
		c7.6-7.4,16.7-11.1,27.3-11.1s19.7,3.7,27.1,11.1s11.1,16.5,11.1,27.1c0,10.4-3.7,19.3-11.1,26.9
		C288.7,132.8,279.7,136.6,269.1,136.6z"/>
</g>
</svg>
