<?xml version="1.0" encoding="utf-8"?>
<!-- Generator: Adobe Illustrator 22.0.0, SVG Export Plug-In . SVG Version: 6.00 Build 0)  -->
<svg version="1.1" id="bold" xmlns="http://www.w3.org/2000/svg" xmlns:xlink="http://www.w3.org/1999/xlink" x="0px" y="0px"
	 viewBox="0 0 552 141.5" style="enable-background:new 0 0 552 141.5;" xml:space="preserve">
<style type="text/css">
	.st0{fill:#343A40;}
	.st1{fill:#FFFFFF;}
</style>
<path class="st0" d="M534.4,141.9H17.6C7.9,141.9,0,134,0,124.3V17.6C0,7.9,7.9,0,17.6,0h516.8c9.7,0,17.6,7.9,17.6,17.6v106.7
	C552,134,544.1,141.9,534.4,141.9z"/>
<g>
	<path class="st1" d="M35.7,95c0,0.7-0.2,1.3-0.5,1.9C35.5,97,36,97,36.5,97c1.6,0,2.8-0.7,3.4-2.2s1-4,1-7.7V65.7
		c0-2.7-0.4-4.1-1.3-4.1c-0.3,0-0.8,0.1-1.4,0.3c-0.6,0.2-1.1,0.3-1.3,0.3c-2.1,0-3.1-1.3-3.1-4c0-3.2,1.4-4.8,4.2-4.8
		c0.7,0,1.8,0.1,3.1,0.3c1.4,0.2,2.4,0.3,3.1,0.3c0.7,0,1.8-0.1,3.2-0.3s2.2-0.3,2.4-0.3c1.3,0,2,0.9,2,2.8v33
		c0,2.7-0.2,4.8-0.7,6.3s-1.4,3-2.7,4.4c-2.9,3.2-7,4.8-12.1,4.8c-3.6,0-6.5-0.7-8.7-2.2c-2.3-1.5-3.4-3.4-3.4-5.7
		c0-1.7,0.6-3.1,1.8-4.2c1.2-1.2,2.7-1.7,4.5-1.7c1.5,0,2.7,0.4,3.7,1.3C35.2,92.7,35.7,93.8,35.7,95z M45.5,50.5
		c-1.8,0-3.4-0.6-4.7-1.9c-1.3-1.3-1.9-2.8-1.9-4.6s0.6-3.4,1.9-4.6c1.3-1.3,2.9-1.9,4.7-1.9s3.4,0.6,4.6,1.9
		c1.3,1.3,1.9,2.8,1.9,4.6s-0.6,3.3-1.9,4.6C48.9,49.9,47.4,50.5,45.5,50.5z"/>
	<path class="st1" d="M77.2,90.7c-6,0-10.5-1.7-13.8-5c-3.2-3.4-4.9-8.1-4.9-14.2c0-6,1.6-10.8,4.8-14.1c3.2-3.4,7.7-5.1,13.5-5.1
		c5.7,0,10.2,1.7,13.5,5c3.3,3.4,4.9,8,4.9,13.8c0,6.1-1.6,10.9-4.8,14.4C87.4,89,82.9,90.7,77.2,90.7z M76.9,61.1
		c-2.1,0-3.8,0.9-5,2.8c-1.2,1.8-1.8,4.4-1.8,7.6c0,3.3,0.6,5.8,1.8,7.6c1.2,1.8,2.9,2.7,5.1,2.7c4.5,0,6.7-3.5,6.7-10.4
		S81.5,61.1,76.9,61.1z"/>
	<path class="st1" d="M113.9,43.5v13.6c3.1-3.3,6.6-4.9,10.4-4.9c4.2,0,7.6,1.7,10.3,5.1c2.6,3.4,3.9,7.9,3.9,13.5
		c0,6-1.5,10.8-4.4,14.4s-6.8,5.4-11.7,5.4s-8.8-1.9-11.6-5.8c0.1,0.8,0.1,1.4,0.1,1.8c0,2.2-1.3,3.3-4,3.3s-4.1-1.4-4.1-4.2V53
		c0-2.4-0.4-3.7-1.2-3.7c-0.3,0-0.8,0.1-1.3,0.3c-0.3,0.1-0.7,0.1-1.2,0.1c-2.3,0-3.5-1.3-3.5-4c0-1.4,0.4-2.6,1.2-3.5
		c0.8-0.9,1.9-1.3,3.2-1.3c0.6,0,1.5,0.1,2.7,0.2c1.2,0.1,2.1,0.2,2.7,0.2c1.4,0,2.7-0.1,3.8-0.2c1.1-0.1,1.9-0.2,2.4-0.2
		C113.3,41,113.9,41.8,113.9,43.5z M120.7,81.5c4.2,0,6.3-3.4,6.3-10.1s-2-10.1-6.1-10.1c-2,0-3.6,0.9-4.9,2.8s-1.9,4.3-1.9,7.2
		C114.1,78.2,116.3,81.5,120.7,81.5z"/>
	<path class="st1" d="M156.8,52.2c3.7,0,6.8,1,9.4,3.1c0.2-2,1.5-3,3.9-3s3.7,0.9,3.7,2.6c0,0.6-0.1,1.2-0.3,1.9
		c-0.1,0.9-0.2,1.7-0.2,2.4c0,0.1,0,0.5,0.1,1.2c0,0.6,0,1.2,0,1.7v0.3c0,2.5-1.3,3.8-3.8,3.8c-1.8,0-3.4-0.9-4.8-2.7
		c-1.6-2.2-3.6-3.3-6-3.3c-2.8,0-4.2,1-4.2,2.9c0,1,0.5,1.7,1.4,2.1s3.3,0.9,7.2,1.6c3.2,0.6,5.5,1.2,7,1.9c1.5,0.7,2.7,1.8,3.7,3.1
		c1.2,1.7,1.8,3.7,1.8,6c0,3.6-1.4,6.7-4.2,9.1s-6.3,3.7-10.5,3.7s-8.1-1.3-11.5-4c0,2.4-1.2,3.5-3.6,3.5c-2.6,0-3.9-1.1-3.9-3.2
		c0-0.5,0-1.2,0.1-2.2s0.1-1.8,0.1-2.2c0-0.4,0-1.1-0.1-1.9c-0.1-0.9-0.1-1.5-0.1-1.9c0-2.2,1.3-3.2,4-3.2c1.3,0,2.3,0.2,3,0.6
		s1.4,1.1,2.2,2.2c1.2,1.8,2.3,2.9,3.3,3.5s2.5,0.8,4.5,0.8c3.5,0,5.2-1.1,5.2-3.2c0-1.5-1.4-2.5-4.2-3.1l-4.2-0.9
		c-3.4-0.7-5.8-1.4-7.2-2.2c-1.4-0.7-2.5-1.9-3.3-3.4c-0.8-1.6-1.2-3.3-1.2-5.4c0-3.6,1.2-6.5,3.6-8.8
		C149.8,53.4,152.9,52.2,156.8,52.2z"/>
</g>
<g>
	<path class="st1" d="M187.3,91.1V47.9h4.1v43.2C191.4,91.1,187.3,91.1,187.3,91.1z"/>
	<path class="st1" d="M206.6,53.5h-0.1v37.7h-4.1V47.9h4.6l25,37.7h0.1V47.9h4.1v43.2h-4.7L206.6,53.5z"/>
	<path class="st1" d="M242,47.9h31.4v3.5h-13.7v39.7h-4.1V51.4H242V47.9z"/>
	<path class="st1" d="M279.2,91.1V47.9H308v3.5h-24.7V67h22.3v3.5h-22.3v17.2h25.3v3.5L279.2,91.1L279.2,91.1z"/>
	<path class="st1" d="M319.9,71.5v19.6l-4.1-0.1V47.9h16.9c4.8,0,8.4,0.9,10.9,2.7s3.8,4.7,3.8,8.7c0,2.7-0.5,4.9-1.6,6.5
		s-2.9,3-5.4,4.1c1.3,0.4,2.3,1.1,3,1.9s1.3,1.8,1.6,2.9c0.4,1.1,0.6,2.2,0.7,3.4c0.1,1.2,0.2,2.4,0.2,3.5c0,1.6,0.1,3,0.2,4.1
		s0.2,2,0.4,2.6c0.1,0.7,0.3,1.2,0.5,1.6s0.4,0.7,0.7,0.9v0.4l-4.5,0.1c-0.4-0.7-0.8-1.7-0.9-3c-0.2-1.3-0.3-2.6-0.4-4
		s-0.2-2.8-0.2-4.1c-0.1-1.3-0.2-2.4-0.3-3.2c-0.2-1.2-0.6-2.1-1.2-2.8c-0.5-0.7-1.2-1.2-1.9-1.6c-0.8-0.4-1.6-0.6-2.6-0.7
		c-0.9-0.1-1.9-0.2-2.9-0.2h-12.9V71.5z M332.6,68c1.5,0,2.9-0.2,4.2-0.5c1.3-0.3,2.4-0.8,3.4-1.5s1.7-1.6,2.3-2.7
		c0.6-1.1,0.8-2.4,0.8-3.9c0-1.6-0.3-2.9-0.9-4c-0.6-1-1.4-1.9-2.3-2.5s-2.1-1-3.4-1.3c-1.3-0.2-2.6-0.4-3.9-0.4h-13V68H332.6z"/>
	<path class="st1" d="M352.1,47.9h4.3l13,38.4l13-38.4h4.3l-15,43.2h-4.5L352.1,47.9z"/>
	<path class="st1" d="M394,91.1V47.9h4.1v43.2C398.1,91.1,394,91.1,394,91.1z"/>
	<path class="st1" d="M409.2,91.1V47.9H438v3.5h-24.7V67h22.3v3.5h-22.3v17.2h25.3v3.5L409.2,91.1L409.2,91.1z"/>
	<path class="st1" d="M479.8,85.4h0.1l9.4-37.4h4.2l-11.3,43.2h-4.5l-10-38.2h-0.1l-10,38.2H453L441.8,48h4.1l9.3,37.4h0.1l10-37.4
		h4.6L479.8,85.4z"/>
	<path class="st1" d="M500.9,78.2c0.2,1.9,0.6,3.6,1.3,4.9c0.7,1.3,1.6,2.4,2.7,3.3c1.1,0.8,2.4,1.5,3.8,1.8c1.4,0.4,3,0.6,4.6,0.6
		c1.9,0,3.6-0.2,5-0.7s2.5-1.1,3.4-1.9s1.5-1.8,1.9-2.9s0.6-2.2,0.6-3.4c0-1.7-0.4-3-1.1-4.1c-0.8-1-1.8-1.9-3-2.6s-2.6-1.2-4.2-1.6
		c-1.6-0.4-3.2-0.8-4.9-1.2c-1.7-0.4-3.3-0.8-4.9-1.4c-1.6-0.5-3-1.2-4.2-2.1s-2.2-2-3-3.4s-1.1-3.1-1.1-5.2c0-1.5,0.3-2.9,0.9-4.3
		c0.6-1.4,1.5-2.6,2.8-3.7c1.2-1.1,2.8-1.9,4.6-2.6c1.8-0.6,4-1,6.4-1c2.4,0,4.6,0.3,6.4,1c1.8,0.7,3.3,1.6,4.5,2.8s2.1,2.5,2.7,4.1
		c0.6,1.6,0.9,3.2,0.9,5h-3.9c0-1.6-0.3-3.1-0.9-4.3c-0.6-1.2-1.4-2.2-2.4-2.9c-1-0.8-2.1-1.3-3.4-1.7c-1.3-0.4-2.6-0.5-4-0.5
		c-2.1,0-3.8,0.3-5.2,0.9c-1.4,0.6-2.5,1.3-3.4,2.2c-0.8,0.9-1.4,1.9-1.7,3.1c-0.3,1.1-0.4,2.2-0.2,3.4c0.2,1.4,0.8,2.5,1.7,3.4
		c0.9,0.8,2,1.5,3.2,2.1s2.7,1,4.2,1.3c1.5,0.3,3.1,0.7,4.7,1.1s3.2,0.8,4.7,1.4c1.5,0.5,2.8,1.2,4,2.1s2.1,2,2.8,3.4s1,3.1,1,5.2
		c0,4-1.4,7.1-4.1,9.3c-2.8,2.2-6.6,3.3-11.6,3.3c-2.2,0-4.3-0.3-6.2-0.9s-3.6-1.5-5-2.6c-1.4-1.2-2.5-2.6-3.3-4.4s-1.2-3.8-1.2-6.1
		h4.1V78.2z"/>
</g>
</svg>
